STARTFONT 2.1
FONT -FontForge-ITC Benguiat Gothic Std-Medium-R-Normal--26-250-75-75-P-134-ISO8859-1
SIZE 25 75 75
FONTBOUNDINGBOX 30 30 -4 -6
COMMENT "Generated by fontforge, http://fontforge.sourceforge.net"
COMMENT "Copyright 1990, 1995 , 2002Adobe Systems Incorporated. All Rights Reserved. ITC Benguiat Gothic is a registered trademark of International Typeface Corporation."
STARTPROPERTIES 40
FOUNDRY "FontForge"
FAMILY_NAME "ITC Benguiat Gothic Std"
WEIGHT_NAME "Medium"
SLANT "R"
SETWIDTH_NAME "Normal"
ADD_STYLE_NAME ""
PIXEL_SIZE 26
POINT_SIZE 250
RESOLUTION_X 75
RESOLUTION_Y 75
SPACING "P"
AVERAGE_WIDTH 134
CHARSET_REGISTRY "ISO8859"
CHARSET_ENCODING "1"
FONTNAME_REGISTRY ""
CHARSET_COLLECTIONS "ISOLatin1Encoding"
FONT_NAME "BenguiatGothicStd-Medium"
FACE_NAME "ITC Benguiat Gothic Std Medium"
COPYRIGHT "Copyright 1990, 1995 , 2002Adobe Systems Incorporated. All Rights Reserved. ITC Benguiat Gothic is a registered trademark of International Typeface Corporation."
FONT_VERSION "001.001"
FONT_ASCENT 18
FONT_DESCENT 8
UNDERLINE_POSITION -3
UNDERLINE_THICKNESS 2
X_HEIGHT 13
CAP_HEIGHT 17
RAW_ASCENT 691
RAW_DESCENT 309
NORM_SPACE 8
RELATIVE_WEIGHT 50
RELATIVE_SETWIDTH 50
SUPERSCRIPT_X 0
SUPERSCRIPT_Y 9
SUPERSCRIPT_SIZE 15
SUBSCRIPT_X 0
SUBSCRIPT_Y 1
SUBSCRIPT_SIZE 15
FIGURE_WIDTH 16
AVG_LOWERCASE_WIDTH 128
AVG_UPPERCASE_WIDTH 156
ENDPROPERTIES
CHARS 253
STARTCHAR space
ENCODING 32
SWIDTH 305 0
DWIDTH 8 0
BBX 1 1 0 0
BITMAP
00
ENDCHAR
STARTCHAR exclam
ENCODING 33
SWIDTH 278 0
DWIDTH 7 0
BBX 3 18 2 0
BITMAP
60
E0
E0
E0
E0
E0
E0
E0
E0
60
60
60
60
00
00
40
E0
60
ENDCHAR
STARTCHAR quotedbl
ENCODING 34
SWIDTH 333 0
DWIDTH 9 0
BBX 6 7 1 11
BITMAP
4C
EC
EC
EC
EC
EC
4C
ENDCHAR
STARTCHAR numbersign
ENCODING 35
SWIDTH 611 0
DWIDTH 16 0
BBX 12 18 2 0
BITMAP
0C60
0C60
08C0
18C0
18C0
FFF0
FFF0
18C0
18C0
1080
3180
FFF0
FFF0
3180
3180
3180
2100
6300
ENDCHAR
STARTCHAR dollar
ENCODING 36
SWIDTH 611 0
DWIDTH 16 0
BBX 12 20 1 -1
BITMAP
0600
0E00
0E00
3FC0
7FC0
E000
6000
7F80
1FE0
0E70
0E30
0E30
0E30
0E70
0EE0
FFC0
FF80
0E00
0E00
0600
ENDCHAR
STARTCHAR percent
ENCODING 37
SWIDTH 833 0
DWIDTH 22 0
BBX 19 18 1 0
BITMAP
1C0600
7F0C00
630C00
E19C00
C19800
61B800
633000
3F7000
1C6000
006000
00C780
00CFC0
019C60
019860
031860
031860
060FC0
060780
ENDCHAR
STARTCHAR ampersand
ENCODING 38
SWIDTH 778 0
DWIDTH 20 0
BBX 19 18 1 0
BITMAP
078000
0FE000
1CE000
187000
187600
186600
1C6300
3FC300
778300
63C300
60E300
E07700
E03E00
600E00
701F00
387BC0
1FF1C0
07C0E0
ENDCHAR
STARTCHAR quotesingle
ENCODING 39
SWIDTH 222 0
DWIDTH 6 0
BBX 2 7 2 11
BITMAP
C0
C0
C0
C0
C0
C0
C0
ENDCHAR
STARTCHAR parenleft
ENCODING 40
SWIDTH 389 0
DWIDTH 10 0
BBX 6 24 2 -5
BITMAP
04
0C
1C
38
30
70
60
E0
C0
C0
C0
C0
C0
C0
C0
C0
E0
60
60
30
38
18
0C
04
ENDCHAR
STARTCHAR parenright
ENCODING 41
SWIDTH 389 0
DWIDTH 10 0
BBX 6 24 2 -5
BITMAP
80
C0
60
70
30
18
18
1C
0C
0C
0C
0C
0C
0C
0C
0C
1C
18
18
30
70
60
C0
80
ENDCHAR
STARTCHAR asterisk
ENCODING 42
SWIDTH 333 0
DWIDTH 9 0
BBX 7 8 1 10
BITMAP
10
10
DE
7C
FC
D6
10
10
ENDCHAR
STARTCHAR plus
ENCODING 43
SWIDTH 600 0
DWIDTH 16 0
BBX 13 14 1 0
BITMAP
0300
0300
0300
0300
0300
0300
FFF8
FFF8
0300
0300
0300
0300
0300
0300
ENDCHAR
STARTCHAR comma
ENCODING 44
SWIDTH 305 0
DWIDTH 8 0
BBX 4 7 1 -3
BITMAP
30
30
30
70
60
E0
C0
ENDCHAR
STARTCHAR hyphen
ENCODING 45
SWIDTH 333 0
DWIDTH 9 0
BBX 6 2 1 6
BITMAP
FC
FC
ENDCHAR
STARTCHAR period
ENCODING 46
SWIDTH 305 0
DWIDTH 8 0
BBX 2 3 3 0
BITMAP
C0
C0
C0
ENDCHAR
STARTCHAR slash
ENCODING 47
SWIDTH 278 0
DWIDTH 7 0
BBX 9 18 -1 0
BITMAP
0180
0180
0380
0300
0700
0600
0600
0C00
0C00
1C00
1800
3800
3000
3000
6000
6000
E000
C000
ENDCHAR
STARTCHAR zero
ENCODING 48
SWIDTH 611 0
DWIDTH 16 0
BBX 14 18 1 0
BITMAP
0780
1FE0
3CF0
7030
6038
6018
E01C
C01C
C00C
C00C
C01C
E01C
6018
6038
7030
38F0
1FE0
0780
ENDCHAR
STARTCHAR one
ENCODING 49
SWIDTH 611 0
DWIDTH 16 0
BBX 9 18 4 0
BITMAP
1800
FC00
FC00
1C00
1C00
1C00
1C00
1C00
1C00
1C00
1C00
1C00
1C00
1C00
1C00
1C00
FF80
FF80
ENDCHAR
STARTCHAR two
ENCODING 50
SWIDTH 611 0
DWIDTH 16 0
BBX 12 18 2 0
BITMAP
FF80
FFC0
00E0
0060
0060
0060
00E0
01C0
07C0
0F00
3E00
7800
F000
E000
C000
C000
FFF0
FFF0
ENDCHAR
STARTCHAR three
ENCODING 51
SWIDTH 611 0
DWIDTH 16 0
BBX 12 18 2 0
BITMAP
FFC0
FFC0
0380
0F00
1C00
7F00
7FC0
01E0
0060
0070
0030
0030
0030
0070
0060
01E0
FFC0
FF00
ENDCHAR
STARTCHAR four
ENCODING 52
SWIDTH 611 0
DWIDTH 16 0
BBX 14 18 1 0
BITMAP
00E0
03E0
07E0
0E60
1C60
1860
3860
7060
6060
6060
E060
E060
FFFC
FFFC
0060
0060
0060
0060
ENDCHAR
STARTCHAR five
ENCODING 53
SWIDTH 611 0
DWIDTH 16 0
BBX 14 18 1 0
BITMAP
3FE0
3FF0
3000
7000
7000
7F80
7FE0
00F0
0038
0018
0018
001C
001C
0018
0038
0070
FFE0
7FC0
ENDCHAR
STARTCHAR six
ENCODING 54
SWIDTH 611 0
DWIDTH 16 0
BBX 14 18 1 0
BITMAP
0FF8
1FF8
3C00
7000
6000
E7C0
EFF0
FC78
F038
F01C
E00C
E00C
E00C
701C
7038
3C78
1FF0
07C0
ENDCHAR
STARTCHAR seven
ENCODING 55
SWIDTH 611 0
DWIDTH 16 0
BBX 11 18 2 0
BITMAP
FFE0
FFE0
0060
0060
00E0
00C0
01C0
0380
0300
0700
0E00
0E00
1C00
1800
1800
1800
1800
1800
ENDCHAR
STARTCHAR eight
ENCODING 56
SWIDTH 611 0
DWIDTH 16 0
BBX 14 18 1 0
BITMAP
0F80
3FE0
3870
7038
6038
7030
3870
1FE0
3FE0
7878
6018
E01C
E01C
E01C
6018
7078
3FF0
0FC0
ENDCHAR
STARTCHAR nine
ENCODING 57
SWIDTH 611 0
DWIDTH 16 0
BBX 14 18 1 0
BITMAP
0F80
3FE0
78F0
6038
E038
C018
C01C
C01C
E03C
E03C
78FC
3FDC
1F98
0018
0038
00F0
7FE0
7F80
ENDCHAR
STARTCHAR colon
ENCODING 58
SWIDTH 305 0
DWIDTH 8 0
BBX 2 11 3 0
BITMAP
C0
C0
C0
00
00
00
00
00
C0
C0
C0
ENDCHAR
STARTCHAR semicolon
ENCODING 59
SWIDTH 305 0
DWIDTH 8 0
BBX 4 14 1 -3
BITMAP
30
30
30
00
00
00
00
30
30
70
60
60
C0
C0
ENDCHAR
STARTCHAR less
ENCODING 60
SWIDTH 600 0
DWIDTH 16 0
BBX 13 14 1 0
BITMAP
0008
0038
00F8
03E0
0F00
7C00
F000
F000
7C00
0F00
03E0
00F8
0038
0008
ENDCHAR
STARTCHAR equal
ENCODING 61
SWIDTH 600 0
DWIDTH 16 0
BBX 13 7 1 3
BITMAP
FFF8
FFF8
0000
0000
0000
FFF8
FFF8
ENDCHAR
STARTCHAR greater
ENCODING 62
SWIDTH 600 0
DWIDTH 16 0
BBX 13 14 1 0
BITMAP
8000
E000
7C00
1F00
07C0
01F0
0038
0038
01F0
07C0
1F00
7C00
F000
8000
ENDCHAR
STARTCHAR question
ENCODING 63
SWIDTH 500 0
DWIDTH 13 0
BBX 11 18 1 0
BITMAP
FF00
FFC0
01C0
00C0
00E0
00C0
01C0
0380
0700
0E00
1C00
1800
1800
1000
0000
1800
3800
1800
ENDCHAR
STARTCHAR at
ENCODING 64
SWIDTH 800 0
DWIDTH 21 0
BBX 18 18 1 0
BITMAP
01F800
0FFE00
1C0700
380180
30F6C0
63F6C0
671C40
C60C40
CE0C40
CC08C0
CC18C0
6E3980
67FF00
33DC00
380180
1C0700
07FE00
01F800
ENDCHAR
STARTCHAR A
ENCODING 65
SWIDTH 667 0
DWIDTH 17 0
BBX 15 18 1 0
BITMAP
0380
07C0
07C0
0EE0
1C60
1C30
1830
3E18
3FD8
71FC
607C
601C
E00E
E00E
C00E
C006
C006
C006
ENDCHAR
STARTCHAR B
ENCODING 66
SWIDTH 611 0
DWIDTH 16 0
BBX 13 18 2 0
BITMAP
FFE0
FFF0
C070
C030
FC70
FFE0
CFC0
C1E0
C070
C038
C038
C018
C018
C018
C038
C070
FFF0
FFC0
ENDCHAR
STARTCHAR C
ENCODING 67
SWIDTH 611 0
DWIDTH 16 0
BBX 14 18 1 0
BITMAP
0FFC
3FFC
7C00
7000
E000
E000
E000
E000
E000
E000
6000
7000
7000
3800
1E00
0FC0
03FC
00FC
ENDCHAR
STARTCHAR D
ENCODING 68
SWIDTH 667 0
DWIDTH 17 0
BBX 14 18 2 0
BITMAP
FC00
FF80
C7C0
C1E0
C070
C038
C018
C01C
C01C
C00C
C00C
C00C
C00C
C01C
C018
C078
FFF0
FFC0
ENDCHAR
STARTCHAR E
ENCODING 69
SWIDTH 556 0
DWIDTH 14 0
BBX 11 18 2 0
BITMAP
FFE0
FFE0
C000
C000
FFE0
FFE0
C000
C000
C000
C000
C000
C000
C000
C000
C000
C000
FFE0
FFE0
ENDCHAR
STARTCHAR F
ENCODING 70
SWIDTH 500 0
DWIDTH 13 0
BBX 11 18 2 0
BITMAP
FFE0
FFE0
C000
C000
FFC0
FFC0
C000
C000
C000
C000
C000
C000
C000
C000
C000
C000
C000
C000
ENDCHAR
STARTCHAR G
ENCODING 71
SWIDTH 667 0
DWIDTH 17 0
BBX 15 18 1 0
BITMAP
0FFC
3FFC
7800
7000
E1FE
E1FE
C006
C006
E006
E006
E006
7006
7006
3806
1E06
0FC6
03FE
00FE
ENDCHAR
STARTCHAR H
ENCODING 72
SWIDTH 611 0
DWIDTH 16 0
BBX 12 18 2 0
BITMAP
C030
C030
C030
C030
FFF0
FFF0
C030
C030
C030
C030
C030
C030
C030
C030
C030
C030
C030
C030
ENDCHAR
STARTCHAR I
ENCODING 73
SWIDTH 222 0
DWIDTH 6 0
BBX 2 18 2 0
BITMAP
C0
C0
C0
C0
C0
C0
C0
C0
C0
C0
C0
C0
C0
C0
C0
C0
C0
C0
ENDCHAR
STARTCHAR J
ENCODING 74
SWIDTH 444 0
DWIDTH 12 0
BBX 11 18 -1 0
BITMAP
00C0
00E0
00E0
00E0
00E0
00E0
00E0
00E0
00E0
00E0
00E0
00E0
00E0
00E0
00C0
F3C0
FF80
3F00
ENDCHAR
STARTCHAR K
ENCODING 75
SWIDTH 611 0
DWIDTH 16 0
BBX 13 18 2 0
BITMAP
C030
C030
C070
C0E0
E1C0
FF80
FF00
C380
C1C0
C0E0
C060
C070
C030
C038
C038
C018
C018
C018
ENDCHAR
STARTCHAR L
ENCODING 76
SWIDTH 444 0
DWIDTH 12 0
BBX 10 18 2 0
BITMAP
C000
C000
C000
C000
C000
C000
C000
C000
C000
C000
C000
C000
C000
C000
C000
C000
FFC0
FF80
ENDCHAR
STARTCHAR M
ENCODING 77
SWIDTH 722 0
DWIDTH 19 0
BBX 15 18 2 0
BITMAP
2018
701C
783C
783C
7C7C
EC6C
CEEC
C7CE
C786
C386
C006
C006
C006
C006
C006
C006
C006
C006
ENDCHAR
STARTCHAR N
ENCODING 78
SWIDTH 611 0
DWIDTH 16 0
BBX 12 18 2 0
BITMAP
C030
E030
F030
F830
DC30
CFB0
C3F0
C0F0
C030
C030
C030
C030
C030
C030
C030
C030
C030
C030
ENDCHAR
STARTCHAR O
ENCODING 79
SWIDTH 722 0
DWIDTH 19 0
BBX 17 18 1 0
BITMAP
03E000
0FF800
1E3C00
380E00
700700
600700
E00300
E00380
E00380
E00380
E00380
E00300
600700
700700
380E00
1C3C00
0FF800
07E000
ENDCHAR
STARTCHAR P
ENCODING 80
SWIDTH 556 0
DWIDTH 14 0
BBX 12 18 2 0
BITMAP
FFE0
FFF0
C070
C030
C070
C0F0
C3E0
DF80
FE00
F000
C000
C000
C000
C000
C000
C000
C000
C000
ENDCHAR
STARTCHAR Q
ENCODING 81
SWIDTH 722 0
DWIDTH 19 0
BBX 17 21 1 -3
BITMAP
03E000
0FF800
1E3C00
380E00
700700
600700
E00300
E00380
E00380
E00380
E00380
E78300
6FC700
70C700
38EE00
1E7C00
0FF800
03F800
001C00
001F80
000780
ENDCHAR
STARTCHAR R
ENCODING 82
SWIDTH 667 0
DWIDTH 17 0
BBX 14 18 2 0
BITMAP
FFE0
FFF0
C038
C018
FC38
FF70
CFE0
C1E0
C070
C030
C038
C018
C01C
C01C
C00C
C00C
C00C
C00C
ENDCHAR
STARTCHAR S
ENCODING 83
SWIDTH 611 0
DWIDTH 16 0
BBX 14 18 1 0
BITMAP
3FF0
7FF0
E000
C000
E000
7F80
3FF0
01F8
0038
001C
001C
000C
001C
001C
0038
0078
FFF0
FFC0
ENDCHAR
STARTCHAR T
ENCODING 84
SWIDTH 500 0
DWIDTH 13 0
BBX 13 18 0 0
BITMAP
FFF8
FFF8
0700
0700
0700
0700
0700
0700
0700
0700
0700
0700
0700
0700
0700
0700
0700
0200
ENDCHAR
STARTCHAR U
ENCODING 85
SWIDTH 611 0
DWIDTH 16 0
BBX 14 18 1 0
BITMAP
2030
6038
6038
6018
6018
6018
6018
E018
E01C
C01C
C00C
C00C
C01C
E01C
F038
78F8
3FF0
0FC0
ENDCHAR
STARTCHAR V
ENCODING 86
SWIDTH 611 0
DWIDTH 16 0
BBX 14 18 1 0
BITMAP
C00C
C00C
C00C
C01C
E01C
E018
6018
6018
7038
3030
3030
3860
1860
1CE0
0CC0
0F80
0780
0300
ENDCHAR
STARTCHAR W
ENCODING 87
SWIDTH 833 0
DWIDTH 22 0
BBX 20 18 1 0
BITMAP
C06020
C06070
C0E070
C0E070
C0E070
E0E060
E0F060
E0F060
60F060
61B0E0
71B8C0
7198C0
3399C0
3319C0
3B0D80
1F0F80
1E0700
0C0600
ENDCHAR
STARTCHAR X
ENCODING 88
SWIDTH 611 0
DWIDTH 16 0
BBX 14 18 1 0
BITMAP
6018
7038
7038
3870
1CE0
0FC0
0780
0FC0
1DE0
3860
3070
7038
6038
E018
E01C
C01C
C00C
C00C
ENDCHAR
STARTCHAR Y
ENCODING 89
SWIDTH 556 0
DWIDTH 14 0
BBX 13 18 1 0
BITMAP
C018
C038
E030
E070
7070
70E0
39C0
1FC0
0F80
0600
0600
0600
0600
0600
0600
0600
0600
0600
ENDCHAR
STARTCHAR Z
ENCODING 90
SWIDTH 500 0
DWIDTH 13 0
BBX 11 18 1 0
BITMAP
7FC0
FFE0
00E0
00E0
00C0
01C0
0380
0780
0700
0E00
1C00
3800
7000
E000
E000
C000
FFE0
FFE0
ENDCHAR
STARTCHAR bracketleft
ENCODING 91
SWIDTH 389 0
DWIDTH 10 0
BBX 6 24 2 -5
BITMAP
7C
FC
C0
C0
C0
C0
C0
C0
C0
C0
C0
C0
C0
C0
C0
C0
C0
C0
C0
C0
C0
C0
F8
FC
ENDCHAR
STARTCHAR backslash
ENCODING 92
SWIDTH 278 0
DWIDTH 7 0
BBX 9 18 -1 0
BITMAP
C000
E000
6000
6000
3000
3000
3800
1800
1C00
0C00
0C00
0600
0600
0700
0300
0380
0180
0180
ENDCHAR
STARTCHAR bracketright
ENCODING 93
SWIDTH 389 0
DWIDTH 10 0
BBX 6 24 2 -5
BITMAP
78
FC
0C
0C
0C
0C
0C
0C
0C
0C
0C
0C
0C
0C
0C
0C
0C
0C
0C
0C
0C
0C
FC
FC
ENDCHAR
STARTCHAR asciicircum
ENCODING 94
SWIDTH 600 0
DWIDTH 16 0
BBX 12 11 2 7
BITMAP
0600
0F00
0F00
1B00
1980
3180
30C0
60C0
6060
C060
C030
ENDCHAR
STARTCHAR underscore
ENCODING 95
SWIDTH 500 0
DWIDTH 13 0
BBX 13 1 0 -3
BITMAP
FFF8
ENDCHAR
STARTCHAR grave
ENCODING 96
SWIDTH 222 0
DWIDTH 6 0
BBX 7 4 -1 15
BITMAP
40
F8
7E
06
ENDCHAR
STARTCHAR a
ENCODING 97
SWIDTH 500 0
DWIDTH 13 0
BBX 11 14 0 0
BITMAP
7FC0
7FE0
0060
0060
03E0
1FE0
7C60
7060
E060
E060
E060
60E0
7FE0
1F60
ENDCHAR
STARTCHAR b
ENCODING 98
SWIDTH 556 0
DWIDTH 14 0
BBX 11 18 2 0
BITMAP
C000
C000
C000
C000
FC00
FF00
CF80
C1C0
C0E0
C060
C060
C060
C060
C060
C0E0
C1E0
FFC0
FF00
ENDCHAR
STARTCHAR c
ENCODING 99
SWIDTH 500 0
DWIDTH 13 0
BBX 12 14 1 0
BITMAP
1FE0
3FE0
7000
E000
E000
C000
C000
E000
E000
6000
7000
3C00
1FF0
07F0
ENDCHAR
STARTCHAR d
ENCODING 100
SWIDTH 556 0
DWIDTH 14 0
BBX 12 18 1 0
BITMAP
0030
0030
0030
0030
03F0
1FF0
3E30
7830
7030
E030
E030
C030
C030
C030
E030
7030
3FF0
1FF0
ENDCHAR
STARTCHAR e
ENCODING 101
SWIDTH 556 0
DWIDTH 14 0
BBX 12 14 1 0
BITMAP
0F80
3FE0
7870
6030
E030
FFF0
FFF0
C000
E000
E000
6000
7000
3FF0
0FF0
ENDCHAR
STARTCHAR f
ENCODING 102
SWIDTH 333 0
DWIDTH 9 0
BBX 9 18 1 0
BITMAP
1F80
3F80
3800
3000
FF00
FF00
3000
3000
3000
3000
3000
3000
3000
3000
3000
3000
3000
3000
ENDCHAR
STARTCHAR g
ENCODING 103
SWIDTH 556 0
DWIDTH 14 0
BBX 13 19 1 -5
BITMAP
07F8
1FF8
3860
7060
E060
C060
C060
C060
C060
E060
7060
3FF0
0FF8
0018
0018
0018
E078
FFF0
3FC0
ENDCHAR
STARTCHAR h
ENCODING 104
SWIDTH 556 0
DWIDTH 14 0
BBX 11 18 2 0
BITMAP
C000
C000
C000
C000
DF00
FFC0
F1C0
E0E0
C0E0
C0E0
C0E0
C0E0
C0E0
C0E0
C0E0
C0E0
C0E0
C060
ENDCHAR
STARTCHAR i
ENCODING 105
SWIDTH 222 0
DWIDTH 6 0
BBX 2 18 2 0
BITMAP
C0
C0
C0
00
C0
C0
C0
C0
C0
C0
C0
C0
C0
C0
C0
C0
C0
C0
ENDCHAR
STARTCHAR j
ENCODING 106
SWIDTH 222 0
DWIDTH 6 0
BBX 8 23 -4 -5
BITMAP
03
03
03
00
03
03
03
03
03
03
03
03
03
03
03
03
03
03
03
07
07
FE
F8
ENDCHAR
STARTCHAR k
ENCODING 107
SWIDTH 500 0
DWIDTH 13 0
BBX 11 18 2 0
BITMAP
C000
C000
C000
C000
C080
C1C0
C380
C700
FE00
FE00
CF00
C380
C1C0
C0C0
C0C0
C0E0
C0E0
C040
ENDCHAR
STARTCHAR l
ENCODING 108
SWIDTH 222 0
DWIDTH 6 0
BBX 2 18 2 0
BITMAP
C0
C0
C0
C0
C0
C0
C0
C0
C0
C0
C0
C0
C0
C0
C0
C0
C0
C0
ENDCHAR
STARTCHAR m
ENCODING 109
SWIDTH 889 0
DWIDTH 23 0
BBX 19 14 2 0
BITMAP
DF0F80
FF9FC0
F1F8E0
E0E060
C0E060
C0E060
C0E060
C0E060
C0E060
C0E060
C0E060
C0E060
C0E060
C04060
ENDCHAR
STARTCHAR n
ENCODING 110
SWIDTH 556 0
DWIDTH 14 0
BBX 11 14 2 0
BITMAP
CF00
FFC0
F1C0
E0E0
C0E0
C0E0
C0E0
C0E0
C0E0
C0E0
C0E0
C0E0
C0E0
C060
ENDCHAR
STARTCHAR o
ENCODING 111
SWIDTH 556 0
DWIDTH 14 0
BBX 12 14 1 0
BITMAP
0F00
3FC0
70E0
6070
E030
C030
C030
C030
C030
E030
6070
70E0
3FC0
0F80
ENDCHAR
STARTCHAR p
ENCODING 112
SWIDTH 556 0
DWIDTH 14 0
BBX 11 19 2 -5
BITMAP
FC00
FF00
C780
C1C0
C0E0
C060
C060
C060
C060
C060
C0E0
C1E0
FFC0
FF00
C000
C000
C000
C000
C000
ENDCHAR
STARTCHAR q
ENCODING 113
SWIDTH 556 0
DWIDTH 14 0
BBX 12 19 1 -5
BITMAP
07F0
1FF0
3C30
7030
6030
E030
C030
C030
C030
E030
E030
7030
3FF0
0FF0
0030
0030
0030
0030
0030
ENDCHAR
STARTCHAR r
ENCODING 114
SWIDTH 333 0
DWIDTH 9 0
BBX 7 14 2 0
BITMAP
DE
FE
F0
E0
C0
C0
C0
C0
C0
C0
C0
C0
C0
C0
ENDCHAR
STARTCHAR s
ENCODING 115
SWIDTH 500 0
DWIDTH 13 0
BBX 11 14 1 0
BITMAP
7FC0
FFC0
C000
E000
FC00
7FC0
07E0
00E0
0060
0060
0060
00E0
FFC0
FF80
ENDCHAR
STARTCHAR t
ENCODING 116
SWIDTH 333 0
DWIDTH 9 0
BBX 8 17 1 0
BITMAP
30
30
30
FE
FE
30
30
30
30
30
30
30
30
30
30
3F
1F
ENDCHAR
STARTCHAR u
ENCODING 117
SWIDTH 556 0
DWIDTH 14 0
BBX 11 14 2 0
BITMAP
C060
C0E0
C0E0
C0E0
C0E0
C0E0
C0E0
C0E0
C0E0
C0E0
C0E0
E3E0
7F60
3E60
ENDCHAR
STARTCHAR v
ENCODING 118
SWIDTH 500 0
DWIDTH 13 0
BBX 11 14 1 0
BITMAP
8020
C060
C060
C060
C060
E0E0
60C0
60C0
7180
3180
3B80
1F00
0E00
0E00
ENDCHAR
STARTCHAR w
ENCODING 119
SWIDTH 722 0
DWIDTH 19 0
BBX 17 14 1 0
BITMAP
C08180
C18180
C1C180
C1C180
C1C180
C3C380
C36300
E36300
636300
667300
763600
3E3E00
3C1E00
180C00
ENDCHAR
STARTCHAR x
ENCODING 120
SWIDTH 500 0
DWIDTH 13 0
BBX 11 14 1 0
BITMAP
4040
E0E0
E0E0
60C0
71C0
3F80
1F00
1F00
3B80
71C0
E0E0
C060
C060
C060
ENDCHAR
STARTCHAR y
ENCODING 121
SWIDTH 500 0
DWIDTH 13 0
BBX 12 19 1 -5
BITMAP
C020
C070
C070
C060
E060
E0E0
60E0
70C0
31C0
3180
1B80
1F00
0F00
0E00
0C00
1C00
3800
3000
3000
ENDCHAR
STARTCHAR z
ENCODING 122
SWIDTH 444 0
DWIDTH 12 0
BBX 11 14 0 0
BITMAP
7FE0
7FE0
00E0
00C0
01C0
0780
0700
1E00
3C00
7800
7000
6000
FFE0
7FE0
ENDCHAR
STARTCHAR braceleft
ENCODING 123
SWIDTH 389 0
DWIDTH 10 0
BBX 8 24 1 -5
BITMAP
1F
1E
38
30
30
30
30
30
30
30
30
E0
E0
70
30
30
30
30
30
30
30
38
1F
1F
ENDCHAR
STARTCHAR bar
ENCODING 124
SWIDTH 222 0
DWIDTH 6 0
BBX 2 26 2 -6
BITMAP
C0
C0
C0
C0
C0
C0
C0
C0
C0
C0
C0
C0
C0
C0
C0
C0
C0
C0
C0
C0
C0
C0
C0
C0
C0
C0
ENDCHAR
STARTCHAR braceright
ENCODING 125
SWIDTH 389 0
DWIDTH 10 0
BBX 8 24 1 -5
BITMAP
F8
78
1C
0C
0C
0C
0C
0C
0C
0C
0C
07
07
0E
0C
0C
0C
0C
0C
0C
0C
1C
78
F8
ENDCHAR
STARTCHAR asciitilde
ENCODING 126
SWIDTH 600 0
DWIDTH 16 0
BBX 12 4 2 4
BITMAP
7E30
FFE0
C7C0
8000
ENDCHAR
STARTCHAR uni00A0
ENCODING 160
SWIDTH 305 0
DWIDTH 8 0
BBX 1 1 0 0
BITMAP
00
ENDCHAR
STARTCHAR exclamdown
ENCODING 161
SWIDTH 278 0
DWIDTH 7 0
BBX 3 18 2 -5
BITMAP
60
E0
40
00
00
60
60
60
60
E0
E0
E0
E0
E0
E0
E0
E0
60
ENDCHAR
STARTCHAR cent
ENCODING 162
SWIDTH 611 0
DWIDTH 16 0
BBX 11 19 2 0
BITMAP
0200
0700
0700
0700
1FC0
3FC0
7700
6700
E700
E700
6700
7700
3F00
1FC0
0FE0
0700
0700
0700
0200
ENDCHAR
STARTCHAR sterling
ENCODING 163
SWIDTH 611 0
DWIDTH 16 0
BBX 14 18 0 0
BITMAP
00F8
03FC
078C
0600
0600
0600
0600
3FF8
1FF8
0600
0600
0600
0600
0600
0600
1E00
FFFC
FFF8
ENDCHAR
STARTCHAR currency
ENCODING 164
SWIDTH 611 0
DWIDTH 16 0
BBX 13 13 1 3
BITMAP
4F88
7FF8
3870
7038
6018
6018
E018
6018
6018
7038
3870
7FF8
4F88
ENDCHAR
STARTCHAR yen
ENCODING 165
SWIDTH 611 0
DWIDTH 16 0
BBX 14 18 1 0
BITMAP
4018
E018
6018
7038
3030
3870
FCFC
FFFC
0F80
0300
7FF8
7FF8
0300
0300
0300
0300
0300
0300
ENDCHAR
STARTCHAR brokenbar
ENCODING 166
SWIDTH 222 0
DWIDTH 6 0
BBX 2 22 2 -4
BITMAP
C0
C0
C0
C0
C0
C0
C0
C0
C0
00
00
00
00
C0
C0
C0
C0
C0
C0
C0
C0
C0
ENDCHAR
STARTCHAR section
ENCODING 167
SWIDTH 500 0
DWIDTH 13 0
BBX 11 18 1 0
BITMAP
3F80
7F80
6000
6000
7800
7F00
FFC0
C3E0
F0E0
7E60
1FE0
03E0
00C0
00C0
00C0
01C0
FFC0
FF00
ENDCHAR
STARTCHAR dieresis
ENCODING 168
SWIDTH 222 0
DWIDTH 6 0
BBX 8 3 -1 15
BITMAP
C3
C7
C3
ENDCHAR
STARTCHAR copyright
ENCODING 169
SWIDTH 800 0
DWIDTH 21 0
BBX 18 18 1 0
BITMAP
03F000
0FFC00
1C0700
30E380
73F980
671CC0
660CC0
CE00C0
CC00C0
CC00C0
CE00C0
660CC0
671CC0
63F980
30E380
1C0700
0FFE00
03F800
ENDCHAR
STARTCHAR ordfeminine
ENCODING 170
SWIDTH 300 0
DWIDTH 8 0
BBX 7 8 0 10
BITMAP
7C
06
02
3E
E2
C2
C6
7A
ENDCHAR
STARTCHAR guillemotleft
ENCODING 171
SWIDTH 444 0
DWIDTH 12 0
BBX 9 10 1 2
BITMAP
3180
3380
6300
6700
C600
E600
6700
6300
3380
3180
ENDCHAR
STARTCHAR logicalnot
ENCODING 172
SWIDTH 600 0
DWIDTH 16 0
BBX 13 7 1 3
BITMAP
FFF8
FFF8
0018
0018
0018
0018
0018
ENDCHAR
STARTCHAR uni00AD
ENCODING 173
SWIDTH 333 0
DWIDTH 9 0
BBX 6 2 1 6
BITMAP
FC
FC
ENDCHAR
STARTCHAR registered
ENCODING 174
SWIDTH 800 0
DWIDTH 21 0
BBX 18 18 1 0
BITMAP
03F000
0FFE00
1C0700
300380
73F980
630CC0
630CC0
C31CC0
C3F8C0
C360C0
C330C0
6330C0
6318C0
330D80
380380
1C0700
0FFC00
03F000
ENDCHAR
STARTCHAR macron
ENCODING 175
SWIDTH 222 0
DWIDTH 6 0
BBX 7 2 -1 16
BITMAP
FE
FE
ENDCHAR
STARTCHAR degree
ENCODING 176
SWIDTH 400 0
DWIDTH 10 0
BBX 8 7 1 11
BITMAP
3C
7E
43
C3
C3
67
3E
ENDCHAR
STARTCHAR plusminus
ENCODING 177
SWIDTH 600 0
DWIDTH 16 0
BBX 13 14 1 0
BITMAP
0300
0300
0300
FFF8
FFF8
0300
0300
0300
0300
0000
0000
0000
FFF8
FFF8
ENDCHAR
STARTCHAR twosuperior
ENCODING 178
SWIDTH 366 0
DWIDTH 10 0
BBX 8 11 0 7
BITMAP
7E
7F
03
03
07
0E
38
60
40
FF
7F
ENDCHAR
STARTCHAR threesuperior
ENCODING 179
SWIDTH 366 0
DWIDTH 10 0
BBX 9 11 0 7
BITMAP
7E00
7E00
1800
3E00
0700
0100
0180
0180
0180
7F00
FE00
ENDCHAR
STARTCHAR acute
ENCODING 180
SWIDTH 222 0
DWIDTH 6 0
BBX 7 4 -1 15
BITMAP
02
1E
7E
E0
ENDCHAR
STARTCHAR mu
ENCODING 181
SWIDTH 556 0
DWIDTH 14 0
BBX 11 19 2 -5
BITMAP
C060
C0E0
C0E0
C0E0
C0E0
C0E0
C0E0
C0E0
C0E0
C0E0
C0E0
E3E0
FF60
FE60
C000
C000
C000
C000
C000
ENDCHAR
STARTCHAR paragraph
ENCODING 182
SWIDTH 600 0
DWIDTH 16 0
BBX 12 18 1 0
BITMAP
1FF0
7FF0
7F30
FF30
FF30
FF30
FF30
7F30
3F30
0F30
0330
0330
0330
0330
0330
0330
0330
0330
ENDCHAR
STARTCHAR periodcentered
ENCODING 183
SWIDTH 305 0
DWIDTH 8 0
BBX 2 3 3 5
BITMAP
C0
C0
C0
ENDCHAR
STARTCHAR cedilla
ENCODING 184
SWIDTH 222 0
DWIDTH 6 0
BBX 6 6 0 -5
BITMAP
30
20
3C
0C
8C
78
ENDCHAR
STARTCHAR onesuperior
ENCODING 185
SWIDTH 366 0
DWIDTH 10 0
BBX 6 11 2 7
BITMAP
E0
E0
20
20
20
20
20
20
20
F8
FC
ENDCHAR
STARTCHAR ordmasculine
ENCODING 186
SWIDTH 334 0
DWIDTH 9 0
BBX 8 8 0 10
BITMAP
3C
77
43
C1
C1
43
67
3C
ENDCHAR
STARTCHAR guillemotright
ENCODING 187
SWIDTH 444 0
DWIDTH 12 0
BBX 8 10 2 2
BITMAP
84
C6
E6
63
73
73
63
E6
C6
C4
ENDCHAR
STARTCHAR onequarter
ENCODING 188
SWIDTH 916 0
DWIDTH 24 0
BBX 20 18 2 0
BITMAP
E00100
E00300
200600
200600
200C00
201800
203800
203040
2061E0
F8C360
FCC660
018C60
030860
031860
061FF0
0C0FF0
1C0060
180040
ENDCHAR
STARTCHAR onehalf
ENCODING 189
SWIDTH 916 0
DWIDTH 24 0
BBX 21 18 1 0
BITMAP
700180
F00300
300300
300600
300C00
300C00
301800
3033C0
3077F0
7C6018
FCC018
018030
018070
0301C0
060300
060600
0C07F0
0807F8
ENDCHAR
STARTCHAR threequarters
ENCODING 190
SWIDTH 916 0
DWIDTH 24 0
BBX 22 18 1 0
BITMAP
FE00C0
7C01C0
380180
7C0300
060600
030600
010C00
011830
0318F0
7F31B0
FC6330
00E330
00C630
018630
0307FC
0307F8
060030
040030
ENDCHAR
STARTCHAR questiondown
ENCODING 191
SWIDTH 500 0
DWIDTH 13 0
BBX 11 18 1 -5
BITMAP
0300
0380
0300
0000
0200
0300
0300
0700
0E00
1C00
7800
7000
E000
E000
E000
7000
7FE0
1FE0
ENDCHAR
STARTCHAR Agrave
ENCODING 192
SWIDTH 667 0
DWIDTH 17 0
BBX 15 22 1 0
BITMAP
0F00
0FC0
00E0
0000
0380
07C0
07C0
0EE0
1C60
1C30
1830
3E18
3FD8
71FC
607C
601C
E00E
E00E
C00E
C006
C006
C006
ENDCHAR
STARTCHAR Aacute
ENCODING 193
SWIDTH 667 0
DWIDTH 17 0
BBX 15 22 1 0
BITMAP
00E0
07E0
0F00
0000
0380
07C0
07C0
0EE0
1C60
1C30
1830
3E18
3FD8
71FC
607C
601C
E00E
E00E
C00E
C006
C006
C006
ENDCHAR
STARTCHAR Acircumflex
ENCODING 194
SWIDTH 667 0
DWIDTH 17 0
BBX 15 23 1 0
BITMAP
0180
03C0
06E0
0C70
0000
0380
07C0
07C0
0EE0
1C60
1C30
1830
3E18
3FD8
71FC
607C
601C
E00E
E00E
C00E
C006
C006
C006
ENDCHAR
STARTCHAR Atilde
ENCODING 195
SWIDTH 667 0
DWIDTH 17 0
BBX 15 22 1 0
BITMAP
0F10
0FF0
10E0
0000
0380
07C0
07C0
0EE0
1C60
1C30
1830
3E18
3FD8
71FC
607C
601C
E00E
E00E
C00E
C006
C006
C006
ENDCHAR
STARTCHAR Adieresis
ENCODING 196
SWIDTH 667 0
DWIDTH 17 0
BBX 15 22 1 0
BITMAP
0C20
1C70
0C70
0000
0380
07C0
07C0
0EE0
1C60
1C30
1830
3E18
3FD8
71FC
607C
601C
E00E
E00E
C00E
C006
C006
C006
ENDCHAR
STARTCHAR Aring
ENCODING 197
SWIDTH 667 0
DWIDTH 17 0
BBX 15 24 1 0
BITMAP
0380
0640
0460
0640
03C0
0000
0380
07C0
07C0
0EE0
1C60
1C30
1830
3E18
3FD8
71FC
607C
601C
E00E
E00E
C00E
C006
C006
C006
ENDCHAR
STARTCHAR AE
ENCODING 198
SWIDTH 944 0
DWIDTH 25 0
BBX 23 18 0 0
BITMAP
001FFE
003FFE
00F600
01C600
0387FE
071FFE
067F00
0FE600
0F8600
1F0600
1C0600
380600
380600
700600
600600
600600
E007FE
C007FE
ENDCHAR
STARTCHAR Ccedilla
ENCODING 199
SWIDTH 611 0
DWIDTH 16 0
BBX 14 23 1 -5
BITMAP
0FFC
3FFC
7C00
7000
E000
E000
E000
E000
E000
E000
6000
7000
7000
3800
1E00
0FC0
07FC
00FC
0080
01E0
0030
0630
03E0
ENDCHAR
STARTCHAR Egrave
ENCODING 200
SWIDTH 556 0
DWIDTH 14 0
BBX 11 22 2 0
BITMAP
3C00
3F00
0380
0000
FFE0
FFE0
C000
C000
FFE0
FFE0
C000
C000
C000
C000
C000
C000
C000
C000
C000
C000
FFE0
FFE0
ENDCHAR
STARTCHAR Eacute
ENCODING 201
SWIDTH 556 0
DWIDTH 14 0
BBX 11 23 2 0
BITMAP
0100
0780
3F00
3800
0000
FFE0
FFE0
C000
C000
FFE0
FFE0
C000
C000
C000
C000
C000
C000
C000
C000
C000
C000
FFE0
FFE0
ENDCHAR
STARTCHAR Ecircumflex
ENCODING 202
SWIDTH 556 0
DWIDTH 14 0
BBX 11 23 2 0
BITMAP
0E00
1E00
3B00
3180
0000
FFE0
FFE0
C000
C000
FFE0
FFE0
C000
C000
C000
C000
C000
C000
C000
C000
C000
C000
FFE0
FFE0
ENDCHAR
STARTCHAR Edieresis
ENCODING 203
SWIDTH 556 0
DWIDTH 14 0
BBX 11 22 2 0
BITMAP
7180
71C0
3180
0000
FFE0
FFE0
C000
C000
FFE0
FFE0
C000
C000
C000
C000
C000
C000
C000
C000
C000
C000
FFE0
FFE0
ENDCHAR
STARTCHAR Igrave
ENCODING 204
SWIDTH 222 0
DWIDTH 6 0
BBX 7 22 -1 0
BITMAP
F0
7E
0E
00
18
18
18
18
18
18
18
18
18
18
18
18
18
18
18
18
18
18
ENDCHAR
STARTCHAR Iacute
ENCODING 205
SWIDTH 222 0
DWIDTH 6 0
BBX 7 22 -1 0
BITMAP
0E
7E
F0
00
18
18
18
18
18
18
18
18
18
18
18
18
18
18
18
18
18
18
ENDCHAR
STARTCHAR Icircumflex
ENCODING 206
SWIDTH 222 0
DWIDTH 6 0
BBX 8 23 -1 0
BITMAP
18
3C
66
C7
00
18
18
18
18
18
18
18
18
18
18
18
18
18
18
18
18
18
18
ENDCHAR
STARTCHAR Idieresis
ENCODING 207
SWIDTH 222 0
DWIDTH 6 0
BBX 8 22 -1 0
BITMAP
C3
E7
C3
00
18
18
18
18
18
18
18
18
18
18
18
18
18
18
18
18
18
18
ENDCHAR
STARTCHAR Eth
ENCODING 208
SWIDTH 667 0
DWIDTH 17 0
BBX 16 18 0 0
BITMAP
3F00
3FE0
31F0
3038
301C
300E
3006
FF87
FF83
3003
3003
3003
3003
3007
3006
301E
3FFC
3FF0
ENDCHAR
STARTCHAR Ntilde
ENCODING 209
SWIDTH 611 0
DWIDTH 16 0
BBX 12 22 2 0
BITMAP
1C40
3FC0
6380
0000
C030
E030
F030
F830
DC30
CFB0
C3F0
C0F0
C030
C030
C030
C030
C030
C030
C030
C030
C030
C030
ENDCHAR
STARTCHAR Ograve
ENCODING 210
SWIDTH 722 0
DWIDTH 19 0
BBX 17 22 1 0
BITMAP
078000
07E000
00F000
000000
03E000
0FF800
1E3C00
380E00
700700
600700
E00300
E00380
E00380
E00380
E00380
E00300
600700
700700
380E00
1C3C00
0FF800
07E000
ENDCHAR
STARTCHAR Oacute
ENCODING 211
SWIDTH 722 0
DWIDTH 19 0
BBX 17 22 1 0
BITMAP
00F000
03F000
070000
000000
03E000
0FF800
1E3C00
380E00
700700
600700
E00300
E00380
E00380
E00380
E00380
E00300
600700
700700
380E00
1C3C00
0FF800
07E000
ENDCHAR
STARTCHAR Ocircumflex
ENCODING 212
SWIDTH 722 0
DWIDTH 19 0
BBX 17 23 1 0
BITMAP
01C000
03C000
076000
063000
000000
03E000
0FF800
1E3C00
380E00
700700
600700
E00300
E00380
E00380
E00380
E00380
E00300
600700
700700
380E00
1C3C00
0FF800
07E000
ENDCHAR
STARTCHAR Otilde
ENCODING 213
SWIDTH 722 0
DWIDTH 19 0
BBX 17 22 1 0
BITMAP
078800
0FF000
087000
000000
03E000
0FF800
1E3C00
380E00
700700
600700
E00300
E00380
E00380
E00380
E00380
E00300
600700
700700
380E00
1C3C00
0FF800
07E000
ENDCHAR
STARTCHAR Odieresis
ENCODING 214
SWIDTH 722 0
DWIDTH 19 0
BBX 17 22 1 0
BITMAP
043000
0E3800
0E3000
000000
03E000
0FF800
1E3C00
380E00
700700
600700
E00300
E00380
E00380
E00380
E00380
E00300
600700
700700
380E00
1C3C00
0FF800
07E000
ENDCHAR
STARTCHAR multiply
ENCODING 215
SWIDTH 600 0
DWIDTH 16 0
BBX 13 14 1 0
BITMAP
4010
E038
7038
3870
1CE0
0FC0
0780
0780
0FC0
1CE0
3870
7038
E038
4010
ENDCHAR
STARTCHAR Oslash
ENCODING 216
SWIDTH 722 0
DWIDTH 19 0
BBX 17 22 1 -2
BITMAP
000C00
000C00
03F800
0FF800
1E3C00
383E00
706700
606700
E0C300
E0C380
E18380
E18380
E10380
E30300
630700
760700
3E0E00
1E3C00
0FF800
1BE000
180000
300000
ENDCHAR
STARTCHAR Ugrave
ENCODING 217
SWIDTH 611 0
DWIDTH 16 0
BBX 14 22 1 0
BITMAP
0E00
0FC0
01C0
0000
2030
6038
6038
6018
6018
6018
6018
E018
E01C
C01C
C00C
C00C
C01C
E01C
F038
78F8
3FF0
0FC0
ENDCHAR
STARTCHAR Uacute
ENCODING 218
SWIDTH 611 0
DWIDTH 16 0
BBX 14 22 1 0
BITMAP
01C0
0FC0
1E00
0000
2030
6038
6038
6018
6018
6018
6018
E018
E01C
C01C
C00C
C00C
C01C
E01C
F038
78F8
3FF0
0FC0
ENDCHAR
STARTCHAR Ucircumflex
ENCODING 219
SWIDTH 611 0
DWIDTH 16 0
BBX 14 23 1 0
BITMAP
0300
0780
0CC0
1860
0000
2030
6038
6038
6018
6018
6018
6018
E018
E01C
C01C
C00C
C00C
C01C
E01C
F038
78F8
3FF0
0FC0
ENDCHAR
STARTCHAR Udieresis
ENCODING 220
SWIDTH 611 0
DWIDTH 16 0
BBX 14 22 1 0
BITMAP
1860
1CE0
1860
0000
2030
6038
6038
6018
6018
6018
6018
E018
E01C
C01C
C00C
C00C
C01C
E01C
F038
78F8
3FF0
0FC0
ENDCHAR
STARTCHAR Yacute
ENCODING 221
SWIDTH 556 0
DWIDTH 14 0
BBX 13 22 1 0
BITMAP
03C0
0FC0
1C00
0000
C018
C038
E030
E070
7070
70E0
39C0
1FC0
0F80
0600
0600
0600
0600
0600
0600
0600
0600
0600
ENDCHAR
STARTCHAR Thorn
ENCODING 222
SWIDTH 556 0
DWIDTH 14 0
BBX 12 18 2 0
BITMAP
C000
C000
C000
FFE0
FFF0
C070
C030
C070
C0F0
C3E0
DF80
FE00
F000
C000
C000
C000
C000
C000
ENDCHAR
STARTCHAR germandbls
ENCODING 223
SWIDTH 556 0
DWIDTH 14 0
BBX 13 18 1 0
BITMAP
1F00
3FC0
71C0
71C0
F780
FF00
7C00
7C00
7F80
73E0
70F0
7038
7018
7018
7038
7070
7FF0
7FC0
ENDCHAR
STARTCHAR agrave
ENCODING 224
SWIDTH 500 0
DWIDTH 13 0
BBX 11 19 0 0
BITMAP
1C00
1F80
03C0
0000
0000
7FC0
7FE0
0060
0060
03E0
1FE0
7C60
7060
E060
E060
E060
60E0
7FE0
1F60
ENDCHAR
STARTCHAR aacute
ENCODING 225
SWIDTH 500 0
DWIDTH 13 0
BBX 11 19 0 0
BITMAP
01C0
0FC0
1E00
0000
0000
7FC0
7FE0
0060
0060
03E0
1FE0
7C60
7060
E060
E060
E060
60E0
7FE0
1F60
ENDCHAR
STARTCHAR acircumflex
ENCODING 226
SWIDTH 500 0
DWIDTH 13 0
BBX 11 20 0 0
BITMAP
0700
0F00
1D80
18C0
0000
0000
7FC0
7FE0
0060
0060
03E0
1FE0
7C60
7060
E060
E060
E060
60E0
7FE0
1F60
ENDCHAR
STARTCHAR atilde
ENCODING 227
SWIDTH 500 0
DWIDTH 13 0
BBX 11 19 0 0
BITMAP
1C20
3FE0
23C0
0000
0000
7FC0
7FE0
0060
0060
03E0
1FE0
7C60
7060
E060
E060
E060
60E0
7FE0
1F60
ENDCHAR
STARTCHAR adieresis
ENCODING 228
SWIDTH 500 0
DWIDTH 13 0
BBX 11 18 0 0
BITMAP
38C0
38E0
10C0
0000
7FC0
7FE0
0060
0060
03E0
1FE0
7C60
7060
E060
E060
E060
60E0
7FE0
1F60
ENDCHAR
STARTCHAR aring
ENCODING 229
SWIDTH 500 0
DWIDTH 13 0
BBX 11 21 0 0
BITMAP
0700
0D80
0880
0980
0F00
0000
0000
7FC0
7FE0
0060
0060
03E0
1FE0
7C60
7060
E060
E060
E060
60E0
7FE0
1F60
ENDCHAR
STARTCHAR ae
ENCODING 230
SWIDTH 833 0
DWIDTH 22 0
BBX 20 14 1 0
BITMAP
7F0F80
7FBFC0
01F0E0
00E060
00E060
0FFFE0
7FFFE0
F0C000
C0C000
C0E000
C0E000
E0F000
FFFFE0
3F1FF0
ENDCHAR
STARTCHAR ccedilla
ENCODING 231
SWIDTH 500 0
DWIDTH 13 0
BBX 12 19 1 -5
BITMAP
1FE0
3FE0
7000
E000
E000
C000
C000
E000
E000
6000
7000
3C00
1FF0
07F0
0200
0380
00C0
08C0
0F80
ENDCHAR
STARTCHAR egrave
ENCODING 232
SWIDTH 556 0
DWIDTH 14 0
BBX 12 19 1 0
BITMAP
1C00
1F00
07C0
0000
0000
0F80
3FE0
7870
6030
E030
FFF0
FFF0
C000
E000
E000
6000
7000
3FF0
0FF0
ENDCHAR
STARTCHAR eacute
ENCODING 233
SWIDTH 556 0
DWIDTH 14 0
BBX 12 19 1 0
BITMAP
01C0
0FC0
1F00
1000
0000
0F80
3FE0
7870
6030
E030
FFF0
FFF0
C000
E000
E000
6000
7000
3FF0
0FF0
ENDCHAR
STARTCHAR ecircumflex
ENCODING 234
SWIDTH 556 0
DWIDTH 14 0
BBX 12 19 1 0
BITMAP
0700
0F80
1D80
18C0
0000
0F80
3FE0
7870
6030
E030
FFF0
FFF0
C000
E000
E000
6000
7000
3FF0
0FF0
ENDCHAR
STARTCHAR edieresis
ENCODING 235
SWIDTH 556 0
DWIDTH 14 0
BBX 12 18 1 0
BITMAP
38C0
38E0
18C0
0000
0F80
3FE0
7870
6030
E030
FFF0
FFF0
C000
E000
E000
6000
7000
3FF0
0FF0
ENDCHAR
STARTCHAR igrave
ENCODING 236
SWIDTH 222 0
DWIDTH 6 0
BBX 7 19 -1 0
BITMAP
60
FC
1E
00
00
18
18
18
18
18
18
18
18
18
18
18
18
18
18
ENDCHAR
STARTCHAR iacute
ENCODING 237
SWIDTH 222 0
DWIDTH 6 0
BBX 7 19 -1 0
BITMAP
0E
3E
F8
00
00
18
18
18
18
18
18
18
18
18
18
18
18
18
18
ENDCHAR
STARTCHAR icircumflex
ENCODING 238
SWIDTH 222 0
DWIDTH 6 0
BBX 8 19 -1 0
BITMAP
18
3C
66
C3
00
18
18
18
18
18
18
18
18
18
18
18
18
18
18
ENDCHAR
STARTCHAR idieresis
ENCODING 239
SWIDTH 222 0
DWIDTH 6 0
BBX 8 18 -1 0
BITMAP
C3
C7
C3
00
18
18
18
18
18
18
18
18
18
18
18
18
18
18
ENDCHAR
STARTCHAR eth
ENCODING 240
SWIDTH 556 0
DWIDTH 14 0
BBX 12 19 1 0
BITMAP
38C0
3F80
0F00
1F80
19C0
00E0
0E60
3FF0
70F0
6070
E030
C030
C030
C030
E030
6070
70E0
3FC0
0F80
ENDCHAR
STARTCHAR ntilde
ENCODING 241
SWIDTH 556 0
DWIDTH 14 0
BBX 11 19 2 0
BITMAP
3840
7F80
4780
0000
0000
CF00
FFC0
F1C0
E0E0
C0E0
C0E0
C0E0
C0E0
C0E0
C0E0
C0E0
C0E0
C0E0
C060
ENDCHAR
STARTCHAR ograve
ENCODING 242
SWIDTH 556 0
DWIDTH 14 0
BBX 12 19 1 0
BITMAP
1C00
1F00
07C0
0000
0000
0F00
3FC0
70E0
6070
E030
C030
C030
C030
C030
E030
6070
70E0
3FC0
0F80
ENDCHAR
STARTCHAR oacute
ENCODING 243
SWIDTH 556 0
DWIDTH 14 0
BBX 12 19 1 0
BITMAP
01C0
0FC0
1E00
1000
0000
0F00
3FC0
70E0
6070
E030
C030
C030
C030
C030
E030
6070
70E0
3FC0
0F80
ENDCHAR
STARTCHAR ocircumflex
ENCODING 244
SWIDTH 556 0
DWIDTH 14 0
BBX 12 19 1 0
BITMAP
0700
0F00
1D80
38C0
0000
0F00
3FC0
70E0
6070
E030
C030
C030
C030
C030
E030
6070
70E0
3FC0
0F80
ENDCHAR
STARTCHAR otilde
ENCODING 245
SWIDTH 556 0
DWIDTH 14 0
BBX 12 19 1 0
BITMAP
1C20
3FC0
23C0
0000
0000
0F00
3FC0
70E0
6070
E030
C030
C030
C030
C030
E030
6070
70E0
3FC0
0F80
ENDCHAR
STARTCHAR odieresis
ENCODING 246
SWIDTH 556 0
DWIDTH 14 0
BBX 12 18 1 0
BITMAP
30C0
38C0
10C0
0000
0F00
3FC0
70E0
6070
E030
C030
C030
C030
C030
E030
6070
70E0
3FC0
0F80
ENDCHAR
STARTCHAR divide
ENCODING 247
SWIDTH 600 0
DWIDTH 16 0
BBX 13 15 1 -1
BITMAP
0300
0780
0780
0300
0000
0000
FFF8
FFF8
0000
0000
0000
0300
0780
0780
0300
ENDCHAR
STARTCHAR oslash
ENCODING 248
SWIDTH 556 0
DWIDTH 14 0
BBX 12 18 1 -2
BITMAP
0060
0040
0FC0
3FC0
71E0
61F0
E330
C330
C630
C630
CC30
EC30
6870
78E0
3FC0
3F80
3000
6000
ENDCHAR
STARTCHAR ugrave
ENCODING 249
SWIDTH 556 0
DWIDTH 14 0
BBX 11 19 2 0
BITMAP
3800
3E00
0F80
0000
0000
C060
C0E0
C0E0
C0E0
C0E0
C0E0
C0E0
C0E0
C0E0
C0E0
C0E0
E3E0
7F60
3E60
ENDCHAR
STARTCHAR uacute
ENCODING 250
SWIDTH 556 0
DWIDTH 14 0
BBX 11 19 2 0
BITMAP
0380
1F80
3C00
0000
0000
C060
C0E0
C0E0
C0E0
C0E0
C0E0
C0E0
C0E0
C0E0
C0E0
C0E0
E3E0
7F60
3E60
ENDCHAR
STARTCHAR ucircumflex
ENCODING 251
SWIDTH 556 0
DWIDTH 14 0
BBX 11 19 2 0
BITMAP
0E00
1E00
3B00
7180
0000
C060
C0E0
C0E0
C0E0
C0E0
C0E0
C0E0
C0E0
C0E0
C0E0
C0E0
E3E0
7F60
3E60
ENDCHAR
STARTCHAR udieresis
ENCODING 252
SWIDTH 556 0
DWIDTH 14 0
BBX 11 18 2 0
BITMAP
6180
7180
2180
0000
C060
C0E0
C0E0
C0E0
C0E0
C0E0
C0E0
C0E0
C0E0
C0E0
C0E0
E3E0
7F60
3E60
ENDCHAR
STARTCHAR yacute
ENCODING 253
SWIDTH 500 0
DWIDTH 13 0
BBX 12 24 1 -5
BITMAP
0380
1F80
3C00
0000
0000
C020
C070
C070
C060
E060
E0E0
60E0
70C0
31C0
3180
1B80
1F00
0F00
0E00
0C00
1C00
3800
3000
3000
ENDCHAR
STARTCHAR thorn
ENCODING 254
SWIDTH 556 0
DWIDTH 14 0
BBX 11 23 2 -5
BITMAP
C000
C000
C000
C000
FC00
FF00
C780
C1C0
C0E0
C060
C060
C060
C060
C060
C0E0
C1E0
FFC0
FF00
C000
C000
C000
C000
C000
ENDCHAR
STARTCHAR ydieresis
ENCODING 255
SWIDTH 500 0
DWIDTH 13 0
BBX 12 23 1 -5
BITMAP
3180
71C0
3180
0000
C020
C070
C070
C060
E060
E0E0
60E0
70C0
31C0
3180
1B80
1F00
0F00
0E00
0C00
1C00
3800
3000
3000
ENDCHAR
STARTCHAR .notdef
ENCODING -1
SWIDTH 500 0
DWIDTH 13 0
BBX 13 18 0 0
BITMAP
FFF8
C018
E028
B068
9048
9888
8D88
8508
8708
8708
8508
8D88
98C8
9048
B068
E038
C018
FFF8
ENDCHAR
STARTCHAR quoteright
ENCODING -1
SWIDTH 222 0
DWIDTH 6 0
BBX 4 7 1 11
BITMAP
30
70
60
60
C0
C0
80
ENDCHAR
STARTCHAR quoteleft
ENCODING -1
SWIDTH 222 0
DWIDTH 6 0
BBX 4 7 1 11
BITMAP
C0
C0
E0
60
60
30
30
ENDCHAR
STARTCHAR fraction
ENCODING -1
SWIDTH 167 0
DWIDTH 4 0
BBX 13 18 -4 0
BITMAP
0018
0030
0030
0060
00C0
00C0
0180
0300
0700
0600
0C00
1800
1800
3000
6000
6000
C000
8000
ENDCHAR
STARTCHAR florin
ENCODING -1
SWIDTH 611 0
DWIDTH 16 0
BBX 15 23 0 -5
BITMAP
003E
007E
0060
00C0
00C0
00C0
01C0
0FF8
0FF8
0180
0180
0180
0180
0380
0300
0300
0300
0300
0700
0600
1E00
FC00
F800
ENDCHAR
STARTCHAR quotedblleft
ENCODING -1
SWIDTH 389 0
DWIDTH 10 0
BBX 8 7 1 11
BITMAP
CC
CC
EE
E6
67
73
23
ENDCHAR
STARTCHAR guilsinglleft
ENCODING -1
SWIDTH 278 0
DWIDTH 7 0
BBX 4 10 2 2
BITMAP
30
70
60
E0
C0
C0
E0
60
70
30
ENDCHAR
STARTCHAR guilsinglright
ENCODING -1
SWIDTH 278 0
DWIDTH 7 0
BBX 3 10 2 2
BITMAP
80
C0
C0
60
60
60
60
C0
C0
80
ENDCHAR
STARTCHAR fi
ENCODING -1
SWIDTH 500 0
DWIDTH 13 0
BBX 12 18 0 0
BITMAP
0FE0
1FF0
3870
3000
FFE0
FFF0
3070
3070
3070
3070
3070
3070
3070
3070
3070
3070
3070
3020
ENDCHAR
STARTCHAR fl
ENCODING -1
SWIDTH 500 0
DWIDTH 13 0
BBX 12 18 0 0
BITMAP
0FE0
1FF0
3870
3070
7F70
FF70
3070
3070
3070
3070
3070
3070
3070
3070
3070
3070
3070
3020
ENDCHAR
STARTCHAR endash
ENCODING -1
SWIDTH 500 0
DWIDTH 13 0
BBX 13 2 0 6
BITMAP
FFF8
FFF8
ENDCHAR
STARTCHAR dagger
ENCODING -1
SWIDTH 389 0
DWIDTH 10 0
BBX 8 18 1 0
BITMAP
18
18
18
18
FF
FF
18
18
18
18
18
18
18
18
18
18
18
18
ENDCHAR
STARTCHAR daggerdbl
ENCODING -1
SWIDTH 389 0
DWIDTH 10 0
BBX 8 18 1 0
BITMAP
18
18
18
18
FF
FF
18
18
18
18
18
18
FF
FF
18
18
18
18
ENDCHAR
STARTCHAR bullet
ENCODING -1
SWIDTH 500 0
DWIDTH 13 0
BBX 9 9 2 4
BITMAP
3C00
7F00
FF00
FF80
FF80
FF80
FF00
7F00
3E00
ENDCHAR
STARTCHAR quotesinglbase
ENCODING -1
SWIDTH 222 0
DWIDTH 6 0
BBX 4 7 1 -3
BITMAP
30
70
60
60
C0
C0
C0
ENDCHAR
STARTCHAR quotedblbase
ENCODING -1
SWIDTH 389 0
DWIDTH 10 0
BBX 8 7 1 -3
BITMAP
23
73
67
E6
CE
CC
8C
ENDCHAR
STARTCHAR quotedblright
ENCODING -1
SWIDTH 389 0
DWIDTH 10 0
BBX 8 7 1 11
BITMAP
23
77
67
E6
CE
CC
8C
ENDCHAR
STARTCHAR ellipsis
ENCODING -1
SWIDTH 1000 0
DWIDTH 26 0
BBX 20 3 3 0
BITMAP
C06020
E06070
C06030
ENDCHAR
STARTCHAR perthousand
ENCODING -1
SWIDTH 1000 0
DWIDTH 26 0
BBX 26 18 0 0
BITMAP
3C080000
7E180000
E3180000
C3300000
C3300000
C3600000
E7600000
7EC00000
3CC00000
01800000
019E0F00
033F1F80
0371B1C0
0661B0C0
0661B0C0
0C61B1C0
0C3F1F80
081E0F00
ENDCHAR
STARTCHAR circumflex
ENCODING -1
SWIDTH 222 0
DWIDTH 6 0
BBX 8 4 -1 15
BITMAP
18
3C
66
C7
ENDCHAR
STARTCHAR tilde
ENCODING -1
SWIDTH 222 0
DWIDTH 6 0
BBX 9 3 -2 15
BITMAP
3880
7F80
C700
ENDCHAR
STARTCHAR breve
ENCODING -1
SWIDTH 222 0
DWIDTH 6 0
BBX 8 4 -1 15
BITMAP
81
C2
7E
3C
ENDCHAR
STARTCHAR dotaccent
ENCODING -1
SWIDTH 222 0
DWIDTH 6 0
BBX 3 3 1 15
BITMAP
60
E0
60
ENDCHAR
STARTCHAR ring
ENCODING -1
SWIDTH 222 0
DWIDTH 6 0
BBX 6 5 0 15
BITMAP
70
C8
CC
C8
78
ENDCHAR
STARTCHAR hungarumlaut
ENCODING -1
SWIDTH 222 0
DWIDTH 6 0
BBX 10 6 -2 14
BITMAP
18C0
18C0
3980
7300
6700
C600
ENDCHAR
STARTCHAR ogonek
ENCODING -1
SWIDTH 222 0
DWIDTH 6 0
BBX 7 5 -1 -5
BITMAP
1C
60
C0
EE
78
ENDCHAR
STARTCHAR caron
ENCODING -1
SWIDTH 222 0
DWIDTH 6 0
BBX 8 4 -1 15
BITMAP
C3
66
3C
18
ENDCHAR
STARTCHAR emdash
ENCODING -1
SWIDTH 1000 0
DWIDTH 26 0
BBX 26 2 0 6
BITMAP
FFFFFFC0
FFFFFFC0
ENDCHAR
STARTCHAR Lslash
ENCODING -1
SWIDTH 444 0
DWIDTH 12 0
BBX 13 18 -1 0
BITMAP
1800
1800
1800
1800
1800
1800
1980
1F80
3E00
F800
5800
1800
1800
1800
1800
1800
1FF8
1FF0
ENDCHAR
STARTCHAR OE
ENCODING -1
SWIDTH 1000 0
DWIDTH 26 0
BBX 24 18 1 0
BITMAP
07C7FF
1FF7FF
387E00
701E00
600FFF
E007FF
E00600
C00600
C00600
C00600
E00600
E00600
E00E00
700E00
781E00
3C7E00
1FF7FF
07C3FF
ENDCHAR
STARTCHAR dotlessi
ENCODING -1
SWIDTH 222 0
DWIDTH 6 0
BBX 2 14 2 0
BITMAP
C0
C0
C0
C0
C0
C0
C0
C0
C0
C0
C0
C0
C0
C0
ENDCHAR
STARTCHAR lslash
ENCODING -1
SWIDTH 222 0
DWIDTH 6 0
BBX 7 18 -1 0
BITMAP
18
18
18
18
18
18
1E
3C
F8
58
18
18
18
18
18
18
18
18
ENDCHAR
STARTCHAR oe
ENCODING -1
SWIDTH 944 0
DWIDTH 25 0
BBX 22 14 1 0
BITMAP
0F83E0
3FCFF8
70FC18
60780C
E0380C
C03FFC
C03FFC
C03000
C03800
E03800
607800
70FC00
3FCFFC
0F83FC
ENDCHAR
STARTCHAR trademark
ENCODING -1
SWIDTH 990 0
DWIDTH 26 0
BBX 23 11 1 7
BITMAP
FF9E0E
FF9E0E
0C1E1E
0C1B1E
0C1B16
0C1B36
0C19B6
0C19E6
0C18E6
0C18E6
0C18C6
ENDCHAR
STARTCHAR minus
ENCODING -1
SWIDTH 600 0
DWIDTH 16 0
BBX 13 2 1 6
BITMAP
FFF8
FFF8
ENDCHAR
STARTCHAR Scaron
ENCODING -1
SWIDTH 611 0
DWIDTH 16 0
BBX 14 23 1 0
BITMAP
1860
0CC0
0780
0300
0000
3FF0
7FF0
E000
C000
E000
7F80
3FF0
01F8
0038
001C
001C
000C
001C
001C
0038
0078
FFF0
FFC0
ENDCHAR
STARTCHAR Ydieresis
ENCODING -1
SWIDTH 556 0
DWIDTH 14 0
BBX 13 22 1 0
BITMAP
18C0
38E0
18C0
0000
C018
C038
E030
E070
7070
70E0
39C0
1FC0
0F80
0600
0600
0600
0600
0600
0600
0600
0600
0600
ENDCHAR
STARTCHAR Zcaron
ENCODING -1
SWIDTH 500 0
DWIDTH 13 0
BBX 11 23 1 0
BITMAP
30C0
1980
0F00
0600
0000
7FC0
FFE0
00E0
00E0
00C0
01C0
0380
0780
0700
0E00
1C00
3800
7000
E000
E000
C000
FFE0
FFE0
ENDCHAR
STARTCHAR scaron
ENCODING -1
SWIDTH 500 0
DWIDTH 13 0
BBX 11 20 1 0
BITMAP
3180
3B80
1B00
0E00
0000
0000
7FC0
FFC0
C000
E000
FC00
7FC0
07E0
00E0
0060
0060
0060
00E0
FFC0
FF80
ENDCHAR
STARTCHAR zcaron
ENCODING -1
SWIDTH 444 0
DWIDTH 12 0
BBX 11 20 0 0
BITMAP
30C0
1980
0F00
0600
0000
0000
7FE0
7FE0
00E0
00C0
01C0
0780
0700
1E00
3C00
7800
7000
6000
FFE0
7FE0
ENDCHAR
STARTCHAR Delta
ENCODING -1
SWIDTH 707 0
DWIDTH 18 0
BBX 17 18 1 0
BITMAP
01C000
03C000
03E000
076000
066000
063000
0C3000
0C3800
181800
181C00
380C00
300C00
300600
600600
600700
C00300
FFFF80
FFFF80
ENDCHAR
STARTCHAR Omega
ENCODING -1
SWIDTH 795 0
DWIDTH 21 0
BBX 18 18 1 0
BITMAP
00E000
07FC00
1E0E00
380700
300380
700180
6001C0
6000C0
6000C0
6000C0
6000C0
600180
300180
300180
180300
0C0600
FE0FC0
FE1FC0
ENDCHAR
STARTCHAR pi
ENCODING -1
SWIDTH 621 0
DWIDTH 16 0
BBX 16 13 0 0
BITMAP
7FFF
FFFE
0C18
0C18
1C18
1818
1818
1818
1818
1818
3818
3018
3018
ENDCHAR
STARTCHAR Euro
ENCODING -1
SWIDTH 611 0
DWIDTH 16 0
BBX 15 18 1 0
BITMAP
03FC
07FE
0E00
1C00
1800
FFE0
7FE0
3800
7FE0
FFE0
1800
1C00
0E00
0E00
0780
03E0
01FE
007E
ENDCHAR
STARTCHAR estimated
ENCODING -1
SWIDTH 844 0
DWIDTH 22 0
BBX 20 18 1 0
BITMAP
01F800
0E0600
180180
3000C0
7000E0
7000E0
F000F0
F000F0
F000F0
FFFFF0
F00000
F00000
700000
700000
300000
100180
0C0300
03FC00
ENDCHAR
STARTCHAR partialdiff
ENCODING -1
SWIDTH 592 0
DWIDTH 15 0
BBX 13 20 1 0
BITMAP
1F00
7FC0
20E0
0060
0030
0030
0038
0018
0F18
3FD8
7078
6038
E018
C038
C030
C030
6060
70E0
3FC0
1F00
ENDCHAR
STARTCHAR product
ENCODING -1
SWIDTH 758 0
DWIDTH 20 0
BBX 18 20 1 -2
BITMAP
FFFFC0
FFFFC0
180600
180600
180600
180600
180600
180600
180600
180600
180600
180600
180600
180600
180600
180600
180600
180600
180600
180600
ENDCHAR
STARTCHAR summation
ENCODING -1
SWIDTH 601 0
DWIDTH 16 0
BBX 14 20 1 -2
BITMAP
FFFC
FFFC
6000
7000
3800
1C00
0E00
0700
0300
0180
0180
0300
0600
0C00
1C00
3800
3000
6000
FFFC
FFFC
ENDCHAR
STARTCHAR uni2219
ENCODING -1
SWIDTH 305 0
DWIDTH 8 0
BBX 2 3 3 5
BITMAP
C0
C0
C0
ENDCHAR
STARTCHAR radical
ENCODING -1
SWIDTH 612 0
DWIDTH 16 0
BBX 15 25 1 -4
BITMAP
0006
0006
0004
0004
000C
000C
0008
0008
0018
0018
0010
3010
F030
9830
1820
1820
0C60
0C60
0640
06C0
06C0
03C0
0380
0380
0180
ENDCHAR
STARTCHAR infinity
ENCODING -1
SWIDTH 810 0
DWIDTH 21 0
BBX 19 8 1 3
BITMAP
3E0F80
6318C0
41B040
C0E060
C0E060
41B040
6318C0
1E0700
ENDCHAR
STARTCHAR integral
ENCODING -1
SWIDTH 373 0
DWIDTH 10 0
BBX 9 25 0 -4
BITMAP
0780
0E00
0C00
0C00
0C00
0C00
0C00
0C00
0C00
0C00
0C00
0C00
0C00
0C00
0C00
0C00
0C00
0C00
0C00
0C00
0C00
0C00
1800
7800
F000
ENDCHAR
STARTCHAR approxequal
ENCODING -1
SWIDTH 605 0
DWIDTH 16 0
BBX 13 8 1 3
BITMAP
3E08
6718
C1F0
0000
0000
3E08
43B8
00F0
ENDCHAR
STARTCHAR notequal
ENCODING -1
SWIDTH 605 0
DWIDTH 16 0
BBX 13 12 1 1
BITMAP
0040
0080
0080
FFF8
0100
0300
0200
0600
FFF8
0400
0800
0800
ENDCHAR
STARTCHAR lessequal
ENCODING -1
SWIDTH 605 0
DWIDTH 16 0
BBX 13 15 1 0
BITMAP
0018
00F0
0380
0E00
3800
6000
6000
3800
0F00
01C0
0070
0018
0000
0000
FFF8
ENDCHAR
STARTCHAR greaterequal
ENCODING -1
SWIDTH 605 0
DWIDTH 16 0
BBX 13 15 1 0
BITMAP
6000
3800
0E00
03C0
0070
0018
0018
00E0
0380
0E00
3800
6000
0000
0000
FFF8
ENDCHAR
STARTCHAR lozenge
ENCODING -1
SWIDTH 613 0
DWIDTH 16 0
BBX 12 20 2 -1
BITMAP
0600
0E00
0F00
1980
1980
30C0
20C0
6060
C060
C030
C030
C030
6060
6060
30C0
3180
1980
0F00
0F00
0600
ENDCHAR
STARTCHAR uni02C9
ENCODING -1
SWIDTH 222 0
DWIDTH 6 0
BBX 7 2 -1 16
BITMAP
FE
FE
ENDCHAR
STARTCHAR uni03A9
ENCODING -1
SWIDTH 795 0
DWIDTH 21 0
BBX 18 18 1 0
BITMAP
00E000
07FC00
1E0E00
380700
300380
700180
6001C0
6000C0
6000C0
6000C0
6000C0
600180
300180
300180
180300
0C0600
FE0FC0
FE1FC0
ENDCHAR
STARTCHAR afii61289
ENCODING -1
SWIDTH 528 0
DWIDTH 14 0
BBX 12 19 1 0
BITMAP
0F80
1880
38C0
30C0
30C0
30C0
3080
3180
3300
3600
3600
3C00
3800
7000
F000
3030
1860
1FE0
0F80
ENDCHAR
STARTCHAR uni03BC
ENCODING -1
SWIDTH 556 0
DWIDTH 14 0
BBX 11 19 2 -5
BITMAP
C060
C0E0
C0E0
C0E0
C0E0
C0E0
C0E0
C0E0
C0E0
C0E0
C0E0
E3E0
FF60
FE60
C000
C000
C000
C000
C000
ENDCHAR
STARTCHAR uni2215
ENCODING -1
SWIDTH 167 0
DWIDTH 4 0
BBX 13 18 -4 0
BITMAP
0018
0030
0030
0060
00C0
00C0
0180
0300
0700
0600
0C00
1800
1800
3000
6000
6000
C000
8000
ENDCHAR
ENDFONT
